<?xml version="1.0" encoding="UTF-8"?>
<svg width="32" height="32" viewBox="0 0 32 32" fill="none" xmlns="http://www.w3.org/2000/svg">
  <!-- Pizza Slice Outline - Thicker and more vibrant red -->
  <path d="M4 28L16 4L28 28H4Z" stroke="#FF0000" stroke-width="4" stroke-linejoin="round"/>
  
  <!-- Hand-drawn Pepperoni Shapes -->
  <path d="M12 23C12.5 23.5 13.5 23.2 13.8 22.8C14.2 22.2 14 21.2 13.5 20.8C13 20.5 12 20.8 11.7 21.2C11.3 21.8 11.5 22.8 12 23Z" fill="#8B0000"/>
  <path d="M16 21C16.5 21.5 17.5 21.2 17.8 20.8C18.2 20.2 18 19.2 17.5 18.8C17 18.5 16 18.8 15.7 19.2C15.3 19.8 15.5 20.8 16 21Z" fill="#8B0000"/>
  <path d="M20 23C20.5 23.5 21.5 23.2 21.8 22.8C22.2 22.2 22 21.2 21.5 20.8C21 20.5 20 20.8 19.7 21.2C19.3 21.8 19.5 22.8 20 23Z" fill="#8B0000"/>
  
  <!-- PPB Text - More hand-drawn style -->
  <path d="M10 17C10 17 11.5 15 11.5 14C11.5 13 10 13 10 14C10 15 10 19 10 19C10 19 11.5 17 12.5 17C13.5 17 13.5 18 12.5 19C11.5 20 10 19 10 19" stroke="#8B0000" stroke-width="2"/>
  <path d="M14 17C14 17 15.5 15 15.5 14C15.5 13 14 13 14 14C14 15 14 19 14 19C14 19 15.5 17 16.5 17C17.5 17 17.5 18 16.5 19C15.5 20 14 19 14 19" stroke="#8B0000" stroke-width="2"/>
  <path d="M18 14C18 14 20 14 21 15C22 16 21 19 18 19C17 19 17 19 17 19" stroke="#8B0000" stroke-width="2"/>
</svg> 