<?xml version="1.0" encoding="UTF-8"?>
<svg width="64" height="64" viewBox="0 0 64 64" fill="none" xmlns="http://www.w3.org/2000/svg">
  <!-- Pizza Icon - Larger and centered -->
  <g transform="translate(4, 16) scale(1.4)">
    <path d="M12 15C12 12.2386 14.2386 10 17 10C19.7614 10 22 12.2386 22 15C22 17.7614 19.7614 20 17 20C14.2386 20 12 17.7614 12 15ZM17 18C18.6569 18 20 16.6569 20 15C20 13.3431 18.6569 12 17 12C15.3431 12 14 13.3431 14 15C14 16.6569 15.3431 18 17 18Z" fill="#FF0000"/>
    <path d="M23.6759 15.5C23.8852 15.6704 24.1934 15.6361 24.3638 15.4268C24.5341 15.2175 24.4998 14.9093 24.2905 14.7389L23.6759 15.5ZM22.7389 13.9268C22.5686 13.7175 22.2604 13.6832 22.0511 13.8536C21.8418 14.0239 21.8075 14.3321 21.9778 14.5414L22.7389 13.9268ZM20.9268 11.7389C20.7564 11.5296 20.4482 11.4953 20.2389 11.6657C20.0296 11.836 19.9953 12.1442 20.1657 12.3536L20.9268 11.7389ZM19.1657 9.35355C19.3361 9.56284 19.6443 9.59716 19.8536 9.42678C20.0629 9.25639 20.0972 8.94822 19.9268 8.73893L19.1657 9.35355ZM18.1657 7.35355C18.3361 7.56284 18.6443 7.59716 18.8536 7.42678C19.0629 7.25639 19.0972 6.94822 18.9268 6.73893L18.1657 7.35355ZM17.1657 5.35355C17.3361 5.56284 17.6443 5.59716 17.8536 5.42678C18.0629 5.25639 18.0972 4.94822 17.9268 4.73893L17.1657 5.35355ZM24.2905 14.7389L22.7389 13.9268L21.9778 14.5414L23.6759 15.5L24.2905 14.7389ZM20.1657 12.3536L19.1657 9.35355L18.1657 7.35355L17.1657 5.35355L17.9268 4.73893L18.9268 6.73893L19.9268 8.73893L20.9268 11.7389L20.1657 12.3536Z" fill="#FF0000"/>
  </g>
  
  <!-- PPB Text - Larger and better positioned -->
  <g transform="translate(28, 24)">
    <text x="0" y="12" font-family="Arial Black" font-size="16" font-weight="bold" fill="#FF0000">PPB</text>
  </g>
</svg> 